<svg width="1440" height="624" viewBox="0 0 1440 624" fill="none" xmlns="http://www.w3.org/2000/svg">
<path d="M675.417 1116.8C208.734 846.916 380.481 563.28 922.905 421.709C1169.63 357.314 1061.33 141.897 1273.6 264.656C1740.29 534.536 1727.88 925.24 1185.46 1066.81C938.73 1131.21 887.694 1239.55 675.417 1116.8Z" fill="url(#paint0_linear)"/>
<path d="M465.283 1161.67C-105.335 908.352 69.4109 618.726 690.731 458.028C973.345 384.932 826.856 173.402 1086.41 288.626C1657.03 541.942 1678.48 932.975 1057.16 1093.67C774.547 1166.77 724.835 1276.89 465.283 1161.67Z" fill="#C4C4C4"/>
<path d="M465.283 1161.67C-105.335 908.352 69.4109 618.726 690.731 458.028C973.345 384.932 826.856 173.402 1086.41 288.626C1657.03 541.942 1678.48 932.975 1057.16 1093.67C774.547 1166.77 724.835 1276.89 465.283 1161.67Z" fill="url(#paint1_linear)"/>
<path d="M206.965 1179.47C-421.155 913.743 -231.476 613.751 449.273 449.727C758.919 375.119 596.599 154.751 882.306 275.62C1510.43 541.348 1536.82 947.566 856.076 1111.59C546.43 1186.2 492.671 1300.34 206.965 1179.47Z" fill="#C4C4C4"/>
<path d="M206.965 1179.47C-421.155 913.743 -231.476 613.751 449.273 449.727C758.919 375.119 596.599 154.751 882.306 275.62C1510.43 541.348 1536.82 947.566 856.076 1111.59C546.43 1186.2 492.671 1300.34 206.965 1179.47Z" fill="url(#paint2_linear)"/>
<defs>
<linearGradient id="paint0_linear" x1="432.878" y1="627.292" x2="1586.09" y2="839.575" gradientUnits="userSpaceOnUse">
<stop stop-color="#3F51B5"/>
<stop offset="1" stop-color="#9A00B4"/>
</linearGradient>
<linearGradient id="paint1_linear" x1="136.58" y1="680.869" x2="1505.24" y2="848.482" gradientUnits="userSpaceOnUse">
<stop stop-color="#3F51B5"/>
<stop offset="1" stop-color="#9A00B4"/>
</linearGradient>
<linearGradient id="paint2_linear" x1="-157.303" y1="678.603" x2="1345.63" y2="862.659" gradientUnits="userSpaceOnUse">
<stop stop-color="#3F51B5"/>
<stop offset="1" stop-color="#9A00B4"/>
</linearGradient>
</defs>
</svg>
