<svg width="1440" height="551" viewBox="0 0 1440 551" fill="none" xmlns="http://www.w3.org/2000/svg">
<path d="M681.287 288.625C312.768 -10.3194 498.29 -237.692 985.939 -291.313C1207.75 -315.703 1142.14 -519.685 1309.76 -383.707C1678.28 -84.7623 1616.64 257.825 1128.99 311.446C907.178 335.837 848.913 424.603 681.287 288.625Z" fill="url(#paint0_linear)"/>
<path d="M493.672 300.611C33.0892 2.63598 221.986 -229.621 780.374 -289.751C1034.36 -317.101 935.211 -522.664 1144.71 -387.127C1605.29 -89.1524 1572.9 258.165 1014.51 318.295C760.524 345.646 703.173 436.148 493.672 300.611Z" fill="#C4C4C4"/>
<path d="M493.672 300.611C33.0892 2.63598 221.986 -229.621 780.374 -289.751C1034.36 -317.101 935.211 -522.664 1144.71 -387.127C1605.29 -89.1524 1572.9 258.165 1014.51 318.295C760.524 345.646 703.173 436.148 493.672 300.611Z" fill="url(#paint1_linear)"/>
<path d="M267.104 279.729C-241.6 -36.7181 -38.436 -276.149 571.792 -331.419C849.361 -356.559 737.668 -571.984 969.058 -428.044C1477.76 -111.597 1447.67 249.747 837.438 305.017C559.869 330.157 498.494 423.669 267.104 279.729Z" fill="#C4C4C4"/>
<path d="M267.104 279.729C-241.6 -36.7181 -38.436 -276.149 571.792 -331.419C849.361 -356.559 737.668 -571.984 969.058 -428.044C1477.76 -111.597 1447.67 249.747 837.438 305.017C559.869 330.157 498.494 423.669 267.104 279.729Z" fill="url(#paint2_linear)"/>
<defs>
<linearGradient id="paint0_linear" x1="535.272" y1="-174.428" x2="1508.33" y2="154.362" gradientUnits="userSpaceOnUse">
<stop stop-color="#3F51B5"/>
<stop offset="1" stop-color="#9A00B4"/>
</linearGradient>
<linearGradient id="paint1_linear" x1="271.99" y1="-166.067" x2="1436.52" y2="151.991" gradientUnits="userSpaceOnUse">
<stop stop-color="#3F51B5"/>
<stop offset="1" stop-color="#9A00B4"/>
</linearGradient>
<linearGradient id="paint2_linear" x1="17.274" y1="-209.291" x2="1296.05" y2="139.968" gradientUnits="userSpaceOnUse">
<stop stop-color="#3F51B5"/>
<stop offset="1" stop-color="#9A00B4"/>
</linearGradient>
</defs>
</svg>
